<?xml version="1.0" encoding="UTF-8" standalone="no"?>
<svg
   xmlns:dc="http://purl.org/dc/elements/1.1/"
   xmlns:cc="http://creativecommons.org/ns#"
   xmlns:rdf="http://www.w3.org/1999/02/22-rdf-syntax-ns#"
   xmlns:svg="http://www.w3.org/2000/svg"
   xmlns="http://www.w3.org/2000/svg"
   xmlns:sodipodi="http://sodipodi.sourceforge.net/DTD/sodipodi-0.dtd"
   xmlns:inkscape="http://www.inkscape.org/namespaces/inkscape"
   id="Layer_1"
   width="1415.36"
   height="465.75"
   version="1.1"
   sodipodi:docname="logo-header-transparent.svg"
   inkscape:version="0.92.2 (5c3e80d, 2017-08-06)">
  <metadata
     id="metadata179">
    <rdf:RDF>
      <cc:Work
         rdf:about="">
        <dc:format>image/svg+xml</dc:format>
        <dc:type
           rdf:resource="http://purl.org/dc/dcmitype/StillImage" />
        <dc:title></dc:title>
      </cc:Work>
    </rdf:RDF>
  </metadata>
  <defs
     id="defs177" />
  <sodipodi:namedview
     pagecolor="#ffffff"
     bordercolor="#666666"
     borderopacity="1"
     objecttolerance="10"
     gridtolerance="10"
     guidetolerance="10"
     inkscape:pageopacity="0"
     inkscape:pageshadow="2"
     inkscape:window-width="2560"
     inkscape:window-height="1311"
     id="namedview175"
     showgrid="false"
     inkscape:zoom="1.2413803"
     inkscape:cx="707.67999"
     inkscape:cy="232.875"
     inkscape:window-x="0"
     inkscape:window-y="55"
     inkscape:window-maximized="1"
     inkscape:current-layer="Layer_1" />
  <style
     id="style117">.st0{fill:#FFFFFF;} .st1{fill:#C1272D;}</style>
  <g
     id="g3781">
    <g
       id="g177">
      <g
         id="g175">
        <g
           id="g163"
           fill="#fff">
          <path
             id="path139"
             d="M257.68 320.6h52.1c4.7 0 8.18.85 10.4 2.68 2.2 1.83 3.27 4.82 3.27 9.05v13.58c0 4.3-1.06 7.3-3.28 9.1-2.2 1.9-5.68 2.7-10.4 2.7h-38.22v23.7h-13.87zm13.96 10.48v16.18h31.78c2.2 0 3.85-.3 4.8-.87 1.07-.6 1.55-2 1.55-4V336c0-2.03-.48-3.38-1.54-3.95-1.06-.58-2.6-.87-4.8-.87h-31.8z"
             class="st0" />
          <path
             id="path141"
             d="M341.78 334.93c0-2.8.3-5.2.77-7.02.48-1.9 1.35-3.3 2.5-4.4 1.16-1 2.7-1.8 4.62-2.2 1.93-.4 4.34-.6 7.13-.6h44.78c2.8 0 5.2.2 7.12.7 1.93.4 3.47 1.2 4.62 2.2 1.16 1.1 2.03 2.5 2.5 4.5.5 2 .78 4.3.78 7.1v32c0 2.8-.3 5.2-.77 7.04-.48 1.93-1.35 3.38-2.5 4.44-1.16 1.07-2.7 1.84-4.63 2.2-1.92.4-4.33.7-7.12.7H356.8c-2.8 0-5.2-.2-7.13-.7-1.92-.36-3.46-1.13-4.62-2.2-1.15-1.05-2.02-2.5-2.5-4.42s-.77-4.2-.77-7zm60.85 35.05v-38.5h-46.7v38.5z"
             class="st0" />
          <path
             id="path143"
             d="M431.2 320.6h14.64l15.4 40.72 16.2-40.73h9.9l16.47 40.7 14.8-40.8h12.6l-23.5 60.7h-9.5l-16.7-42.1-16.9 42h-9.8z"
             class="st0" />
          <path
             id="path145"
             d="M546.92 320.6h62.2V331H561.1v13.56h28.02v10.4H561.1v15.12h48.63v11.46h-62.78z"
             class="st0" />
          <path
             id="path147"
             d="M627.18 320.6h52.1c4.7 0 8.18.85 10.4 2.68 2.2 1.83 3.27 4.82 3.27 9.05v14.26c0 4.2-1.06 7.2-3.28 9-2.2 1.8-5.68 2.7-10.4 2.7h-8l28.03 23h-20.22l-24.55-23h-13.48v23h-13.87zm13.96 10.48v16.95h31.78c2.2 0 3.85-.3 4.8-.87 1.07-.57 1.55-1.92 1.55-3.94v-7.32c0-2.02-.48-3.37-1.54-3.95-1.06-.58-2.6-.87-4.8-.87z"
             class="st0" />
          <path
             id="path149"
             d="M713.02 320.6h14.16v49.38h45.64v11.46h-59.7V320.6z"
             class="st0" />
          <path
             id="path151"
             d="M789.16 320.6h14.16v60.75h-14.16z"
             class="st0" />
          <path
             id="path153"
             d="M819.17 320.6h61.53v10.58h-47.38v15.98h25.6v11.08h-25.6v23.1h-14.15z"
             class="st0" />
          <path
             id="path155"
             d="M928.7 381.44h-14.14v-49.97h-27.93V320.6h70.1v10.87H928.7z"
             class="st0" />
          <path
             id="path157"
             d="M969.7 320.6h14.16v60.75H969.7z"
             class="st0" />
          <path
             id="path159"
             d="M999.5 320.6h9.64l42.76 35.8c1.25 1.07 2.4 2.03 3.56 3.1 1.16 1.05 2.2 2.2 3.37 3.45-.2-2.5-.3-4.62-.4-6.45-.08-1.73-.18-3.08-.18-4.04V320.6h12.7v60.75h-9.62l-44.68-37.56c-.86-.8-1.73-1.6-2.5-2.4-.87-.8-1.64-1.7-2.5-2.6.2 2.3.38 4.3.48 5.9.1 1.6.1 2.9.1 3.7v32.8H999.5z"
             class="st0" />
          <path
             id="path161"
             d="M1099.62 331.47v38.5h44.2V356.4h-23.1V346h36.86v21c0 2.8-.28 5.2-.77 7.03-.4 1.92-1.3 3.37-2.5 4.43-1.1 1.06-2.7 1.83-4.6 2.2-1.9.4-4.3.7-7.1.7h-42c-2.8 0-5.2-.2-7.1-.7-1.9-.37-3.4-1.14-4.6-2.2-1.1-1.06-2-2.5-2.5-4.43-.5-1.93-.7-4.24-.7-7.03v-32.07c0-2.8.3-5.2.8-7.02.5-1.9 1.4-3.3 2.5-4.4 1.2-1 2.7-1.8 4.6-2.2 2-.4 4.4-.6 7.2-.6h42c2.8 0 5.1.2 7.06.6 1.9.4 3.45 1.2 4.6 2.2 1.16 1.1 2.03 2.5 2.6 4.3.6 1.8.87 4.1.87 6.8v1.4l-13.8 2.5v-6.8z"
             class="st0" />
        </g>
        <g
           id="g173"
           fill="#c1272d">
          <path
             id="path165"
             stroke-width=".88"
             d="M363.7 84.2c34.9 0 61.2 7.6 78.73 22.8 17.53 15.2 26.3 39.2 26.3 71.9 0 32.9-8.77 57-26.22 72.2-17.4 15.2-43.7 22.8-78.8 22.8-35.2 0-61.5-7.6-78.9-22.8-17.3-15.2-26-39.2-26-72.2 0-32.7 8.8-56.7 26.2-71.9 17.4-15.2 43.7-22.8 78.8-22.8zm0 141.9c11.18 0 20.58-.6 28.33-1.8 7.74-1.2 14-3.5 18.78-7 4.8-3.5 8.3-8.3 10.5-14.4 2.1-6.1 3.2-14.1 3.2-24s-1.1-17.9-3.2-24c-2.1-6.1-5.6-10.9-10.4-14.3-4.8-3.4-11-5.7-18.8-6.9-7.7-1.2-17.2-1.8-28.3-1.8-11.2 0-20.6.6-28.3 1.8-7.7 1.2-14 3.5-18.8 6.9-4.7 3.4-8.3 8.1-10.4 14.3-2.1 6.1-3.2 14.1-3.2 24s1.1 17.9 3.2 24c2.1 6.1 5.7 10.9 10.4 14.4 4.8 3.5 11.1 5.8 18.8 7 7.8 1.2 17.2 1.8 28.4 1.8z"
             class="st1" />
          <path
             id="path167"
             stroke-width=".91"
             d="M704.43 156.1c0 10.2-1.65 19.5-4.94 27.9-3.3 8.3-8.2 15.4-14.6 21.3-6.5 5.9-14.2 10.4-23.4 13.7-9.2 3.3-19.7 4.9-31.4 4.9H551v46.9h-46.5V177h130.24c7.25 0 12.85-1.9 16.8-5.8 3.96-3.8 6.02-9 6.02-15.4s-1.98-11.5-6-15.2c-3.97-3.7-9.65-5.6-16.82-5.6h-130.3l30.96-47.7h94.9c11.77 0 22.24 1.7 31.38 5.1 9.23 3.4 16.97 8.1 23.3 14.1 6.35 6 11.13 13.3 14.5 21.7 3.3 8.4 4.95 17.7 4.95 27.9z"
             class="st1" />
          <path
             id="path169"
             stroke-width=".94"
             d="M930.13 223.6l-32.53 47.2H740.13V87.3H929.7L896.9 135H791v22h129.6l-29.15 41.7H790.93v25h139.2z"
             class="st1" />
          <path
             id="path171"
             stroke-width=".93"
             d="M1128.5 273.9c-3.22 0-6.35-.6-9.4-1.8-3.13-1.2-6.53-3.9-10.36-8.1l-97.9-101v107.8h-45V118.5c0-6 .77-11.2 2.25-15.6 1.4-4.4 3.4-8 6-10.7 2.4-2.7 5.3-4.8 8.6-6 3.2-1.3 6.6-1.9 10.2-1.9 3 0 6.1.6 9.2 1.8 3.1 1.2 6.6 3.9 10.6 8.1l97.9 101V87.3h45.1v152c0 6-.8 11.2-2.3 15.6s-3.5 8-6 10.8c-2.5 2.8-5.4 4.9-8.7 6.2-3.5 1.3-6.9 2-10.4 2z"
             class="st1" />
        </g>
      </g>
    </g>
    <g
       id="g21">
      <g
         id="g26">
        <path
           id="rect20-7"
           fill="#c82932"
           d="M1254.4 0h-48.04s20.9 154.1 20.95 231.64c.1 78.35-20.9 234.1-20.9 234.1h48.1s23.5-155.67 23.5-234.1C1277.8 154.04 1254.4 0 1254.4 0z" />
        <path
           id="rect20-3-5"
           fill="#c82932"
           d="M1332.04 0H1284s20.9 154.1 20.93 231.64c.04 78.35-20.94 234.1-20.94 234.1h48s23.4-155.67 23.4-234.1C1355.3 154.04 1332 0 1332 0z" />
        <path
           id="rect20-3-6-3"
           fill="#fff"
           stroke-width=".61"
           d="M1400.43 106.9h-30.66s13.34 89.28 13.36 134.2c.03 45.4-13.36 135.63-13.36 135.63h30.66s14.96-90.2 14.93-135.63c-.02-44.96-14.93-134.2-14.93-134.2z" />
      </g>
    </g>
    <g
       id="g16">
      <path
         id="rect20"
         fill="#c82932"
         d="M160.95 0H209s-20.9 154.1-20.95 231.64C188.02 310 209 465.74 209 465.74h-48.05s-23.45-155.67-23.4-234.1C137.57 154.04 160.95 0 160.95 0z" />
      <path
         id="rect20-3"
         fill="#c82932"
         d="M83.32 0h48.06s-20.9 154.1-20.95 231.64c-.04 78.35 20.95 234.1 20.95 234.1H83.32s-23.45-155.67-23.4-234.1C59.94 154.04 83.3 0 83.3 0z" />
      <path
         id="rect20-3-6"
         fill="#fff"
         stroke-width=".61"
         d="M14.93 106.9H45.6s-13.35 89.28-13.37 134.2C32.2 286.5 45.6 376.73 45.6 376.73H14.92S-.03 286.53 0 241.1c.03-44.96 14.93-134.2 14.93-134.2z" />
    </g>
  </g>
</svg>
