<?xml version="1.0" encoding="UTF-8"?>
<svg version="1.1" viewBox="0 0 3850.6 655.05" xmlns="http://www.w3.org/2000/svg" xmlns:cc="http://creativecommons.org/ns#" xmlns:dc="http://purl.org/dc/elements/1.1/" xmlns:rdf="http://www.w3.org/1999/02/22-rdf-syntax-ns#" xmlns:xlink="http://www.w3.org/1999/xlink">
<metadata>
<rdf:RDF>
<cc:Work rdf:about="">
<dc:format>image/svg+xml</dc:format>
<dc:type rdf:resource="http://purl.org/dc/dcmitype/StillImage"/>
<dc:title/>
</cc:Work>
</rdf:RDF>
</metadata>
<g transform="translate(-.57 1.4881)" fill="#f4f4f4">
<path d="m361 449.28h72.92c6.57 0 11.45 1.21 14.55 3.78 3.08 2.54 4.58 6.71 4.58 12.66v18.9c0 5.94-1.48 10.12-4.6 12.67-3.21 2.56-7.97 3.78-14.55 3.78h-53.6v33.16h-19.3zm19.54 14.69v22.63h44.48c3.07 0 5.38-0.28 6.71-1.12 1.5-0.84 2.17-2.66 2.17-5.46v-8.96c0-2.8-0.7-4.61-2.24-5.45-1.54-0.7-3.64-1.12-6.71-1.12h-44.51zm98.16 5.4c0-3.92 0.42-7.28 1.08-9.85 0.67-2.7 1.89-4.72 3.5-6.2a13.34 13.34 0 0 1 6.47-3.1c2.65-0.43 6.01-0.84 9.93-0.84h62.56c3.92 0 7.28 0.27 9.94 0.97 2.66 0.56 4.76 1.68 6.44 3.22 1.54 1.54 2.8 3.5 3.5 6.3 0.7 2.66 1.12 5.99 1.12 9.9v44.87c0 3.92-0.42 7.28-1.12 9.85a12.95 12.95 0 0 1-3.5 6.16 13.24 13.24 0 0 1-6.58 3.08c-2.8 0.56-6.16 0.98-10.08 0.98h-62.4c-3.92 0-7.28-0.28-9.98-0.98a13.54 13.54 0 0 1-6.5-3.08c-1.6-1.54-2.8-3.5-3.5-6.21a40.02 40.02 0 0 1-1.07-9.8l0.2-45.27zm85.17 49.03v-53.9h-65.37v53.9h65.36zm39.99-69.12h20.48l21.55 57 22.68-57h13.85l23.05 57 20.62-57h17.66l-32.89 85.02h-13.34l-23.45-58.89-23.8 58.9h-13.71zm161.95 0h87.05v14.55h-67.23v19h39.21v14.55h-39.21v21.13h68.06v16.05h-87.9zm112.33 0h72.91c6.58 0 11.45 1.21 14.56 3.78 3.08 2.54 4.57 6.71 4.57 12.66v19.87c0 5.88-1.48 10.07-4.59 12.6-3.21 2.51-7.97 3.77-14.55 3.77h-11.2l39.19 32.19h-28.27l-34.43-32.19h-18.9v32.19h-19.3v-84.87zm19.53 14.69v23.7h44.48c3.08 0 5.39-0.42 6.72-1.2 1.5-0.81 2.17-2.7 2.17-5.53v-10.24c0-2.83-0.7-4.71-2.24-5.53-1.54-0.8-3.64-1.21-6.72-1.21l-44.4 0.01zm100.6-14.69h19.82v69.12h63.88v16.04h-83.56v-85.16zm106.57 0h19.81v85.02h-19.81zm42.01 0h86.07v14.83h-66.31v22.36h35.83v15.5h-35.83v32.31h-19.8zm153.29 85.16h-19.81v-69.94h-39.08v-15.22h98.11v15.22h-39.22zm57.37-85.16h19.82v85.02h-19.82zm41.72 0h13.48l59.85 50.12c1.74 1.48 3.35 2.83 4.98 4.31 1.6 1.48 3.08 3.1 4.71 4.86-0.28-3.5-0.42-6.44-0.56-8.96-0.1-2.38-0.25-4.34-0.25-5.6v-44.63h17.78v85.07h-13.47l-62.53-52.61c-1.2-1.12-2.42-2.1-3.5-3.22-1.22-0.98-2.3-2.24-3.5-3.64 0.28 3.22 0.54 6.16 0.68 8.4 0.14 2.38 0.14 4.06 0.14 5.32v46.03h-17.8v-85.45zm140.11 15.22v53.9h61.86v-19h-32.38v-14.55h51.61v29.38c0 3.9-0.42 7.28-1.08 9.83a11 11 0 0 1-3.5 6.2 12.76 12.76 0 0 1-6.43 3.21c-2.66 0.56-6.02 0.98-9.94 0.98h-58.78c-3.92 0-7.28-0.28-9.94-0.84a13.21 13.21 0 0 1-6.44-3.07c-1.53-1.4-2.8-3.5-3.5-6.16s-0.97-5.88-0.97-9.8v-44.91c0-3.92 0.42-7.28 1.12-9.8 0.7-2.71 1.96-4.76 3.5-6.21a13.59 13.59 0 0 1 6.43-3.08 59.4 59.4 0 0 1 10.08-0.88h58.64c3.92 0 7.14 0.28 9.94 0.84 2.7 0.56 4.85 1.62 6.44 3.08a13.24 13.24 0 0 1 3.63 5.96c0.84 2.38 1.26 5.64 1.26 9.41v1.96l-19.31 3.5v-9.61z"/>
</g>
<g transform="translate(-.57 1.4881)" fill="#fdb93e">
<path d="m509.35 118.52c48.88 0 85.68 10.63 110.22 31.9 24.53 21.27 36.8 54.86 36.8 100.61 0 46.04-12.27 79.77-36.69 101.04-24.44 21.27-61.23 31.9-110.31 31.9-49.27 0-86.08-10.63-110.43-31.9-24.21-21.27-36.39-54.86-36.39-101.04 0-45.75 12.32-79.34 36.67-100.6 24.35-21.28 61.16-31.91 110.29-31.91zm0 198.56c15.68 0 28.83-0.84 39.67-2.52s19.62-4.9 26.3-9.8c6.67-4.89 11.62-11.6 14.56-20.14s4.48-19.73 4.48-33.59c0-13.85-1.54-25.04-4.48-33.58s-7.89-15.25-14.55-20.01c-6.7-4.76-15.47-7.98-26.31-9.66-10.84-1.67-24.08-2.51-39.65-2.51-15.54 0-28.7 0.84-39.61 2.51-10.78 1.68-19.6 4.9-26.31 9.66-6.58 4.76-11.62 11.33-14.56 20.01-2.94 8.54-4.48 19.73-4.48 33.58 0 13.86 1.54 25.05 4.48 33.59a41.47 41.47 0 0 0 14.56 20.15c6.72 4.9 15.53 8.11 26.31 9.8 10.92 1.67 24.07 2.51 39.75 2.51zm476.9-97.95c0 14.27-2.3 27.29-6.91 39.04a80.16 80.16 0 0 1-20.3 29.8c-8.95 8.26-19.73 14.56-32.75 19.18-12.87 4.62-27.57 6.85-43.94 6.85h-110.7v65.63h-65.09v-131.25h182.24c10.21 0 18.05-2.66 23.5-8.12 5.6-5.32 8.4-12.6 8.4-21.55 0-8.96-2.8-16.1-8.4-21.27-5.45-5.18-13.43-7.84-23.5-7.84h-182.4l43.32-66.74h132.81c16.48 0 31.13 2.37 43.92 7.13 12.98 4.76 23.8 11.34 32.61 19.73 8.96 8.4 15.65 18.61 20.3 30.37 4.61 11.75 7 24.77 7 39.04h-0.12zm315.88 94.45-45.53 66.05h-220.38v-256.77h265.28l-45.9 66.74h-148.16v30.79h181.34l-40.73 58.35h-140.65v34.98h194.82zm277.63 70.39c-4.5 0-8.89-0.84-13.15-2.52-4.39-1.68-9.14-5.46-14.5-11.33l-137.02-141.34v150.85h-62.98v-213.12c0-8.4 1.08-15.67 3.15-21.82 2.1-6.16 4.9-11.2 8.54-14.98 3.5-3.78 7.41-6.71 12.03-8.4a38.55 38.55 0 0 1 14.28-2.65c4.34 0 8.53 0.84 12.87 2.52 4.48 1.68 9.24 5.45 14.84 11.33l137.02 141.33v-150.98h63.26v212.7c0 8.39-1.12 15.67-3.08 21.82-2.1 6.16-4.9 11.2-8.4 15.12a30.99 30.99 0 0 1-12.18 8.67 41.17 41.17 0 0 1-14.41 2.8z" fill="#fdb93e"/>
</g>
<path d="m1755.6 1.6981h-67.27s29.26 215.64 29.33 324.11c0.04 109.61-29.33 327.54-29.33 327.54h67.27s32.85-217.82 32.76-327.54c-0.04-108.57-32.76-324.11-32.76-324.11zm108.68 0h-67.27s29.4 215.64 29.4 324.11c0.14 109.61-29.26 327.54-29.26 327.54h67.34s32.9-217.82 32.76-327.54c0-108.57-32.76-324.11-32.76-324.11h-0.2z" fill="#fdb93e"/>
<path d="m1960 151.27h-42.92s18.62 124.91 18.62 187.76c0 63.52-18.76 189.78-18.76 189.78h42.84s20.86-126.2 20.86-189.86c-0.14-62.96-21-187.77-21-187.77z" fill="#f4f4f4"/>
<path d="m225.21 1.6981h67.27s-29.26 215.64-29.33 324.11c-0.04 109.61 29.33 327.54 29.33 327.54h-67.27s-32.85-217.82-32.76-327.54c0.04-108.57 32.76-324.11 32.76-324.11zm-108.68 0h67.27s-29.4 215.64-29.4 324.11c-0.14 109.61 29.26 327.54 29.26 327.54h-67.2s-32.9-217.82-32.76-327.54c0-108.57 32.76-324.11 32.76-324.11z" fill="#fdb93e"/>
<path d="m20.78 151.27h42.92s-18.62 124.91-18.62 187.76c0 63.52 18.76 189.78 18.76 189.78h-42.98s-20.86-126.2-20.86-189.86c0-62.96 20.86-187.77 20.86-187.77z" fill="#f4f4f4"/>
<g>
<g transform="matrix(.52402 .52402 -.52402 .52402 1246.5 -1124.7)" fill="#fff" style="">
<rect x="2368.8" y="187.64" width="42.568" height="390.92"/>
<rect transform="rotate(90)" x="360.82" y="-2582.8" width="42.568" height="390.92"/>
</g>
<g fill="#fdb93e">
<g style="">
<g transform="matrix(2.5801 0 0 2.5801 2331.8 -224.24)">
<path class="st1" d="m283.79 183.74c-6.03 0-13.26 3.27-15.62 9.21-1.11 2.79-1.27 6.33-1.78 9.3-1.5 8.85-2.99 17.7-4.49 26.54-1.84 10.9-3.69 21.81-5.53 32.71-1.44 8.53-2.89 17.06-4.33 25.59l-1.11 6.57c-1.25 7.34 1.76 13.91 9 16.32 2.56 0.85 5.14 0.72 7.79 0.72h10.39c4.21 0 8.21-1.58 10.99-4.79 1.75-2.02 3.01-4.37 3.45-7.01 0.08-0.47 0.16-0.93 0.25-1.39 0.28-1.6 0.55-3.19 0.83-4.79 0.41-2.35 0.82-4.71 1.22-7.06 0.51-2.94 1.02-5.89 1.53-8.84 0.58-3.38 1.16-6.76 1.74-10.14 0.63-3.65 1.25-7.31 1.87-10.96 0.64-3.77 1.28-7.53 1.91-11.3l1.86-11.16c0.58-3.51 1.16-7.02 1.73-10.53 0.51-3.14 1.01-6.28 1.5-9.43 0.41-2.61 0.81-5.22 1.19-7.83 0.28-1.92 0.55-3.84 0.79-5.77 0.1-0.79 0.19-1.59 0.26-2.38 0.99-12.1-12.6-13.58-25.44-13.58m-2.31 111.57s-0.66 4.28-5.11 4.28h-11.03s-3.29-0.17-2.64-4.28c0.26-1.61 0.53-3.22 0.8-4.83 0.58-3.47 1.16-6.94 1.73-10.4 0.79-4.74 1.58-9.47 2.37-14.21 0.91-5.42 1.81-10.83 2.71-16.25 0.92-5.5 1.84-11.01 2.76-16.52 0.84-5.01 1.68-10.02 2.51-15.03 0.66-3.92 1.31-7.84 1.97-11.77 0.22-1.34 0.45-2.69 0.67-4.03 0.32-1.89 0.26-3.99 1.76-5.38 1.44-1.33 3.53-1.7 5.43-1.7h5.76c2.51 0 6.26 0.58 5.87 3.91-0.13 1.11-0.37 2.23-0.55 3.34-0.51 3.13-1.02 6.26-1.52 9.4-0.72 4.45-1.44 8.9-2.16 13.35-0.85 5.22-1.69 10.43-2.53 15.65-0.88 5.42-1.75 10.84-2.63 16.27-0.82 5.08-1.64 10.16-2.46 15.23-0.67 4.18-1.35 8.35-2.03 12.53-0.44 2.72-0.88 5.45-1.32 8.17-0.12 0.76-0.24 1.52-0.36 2.27" fill="#fdb93e"/>
</g>
<path class="st1" d="m3338.7 249.83h-127.2c-11.223 0-21.028 4.0508-28.562 12.617-7.1985 8.179-10.862 18.835-12.488 29.439-1.7029 11.12-3.4316 22.215-5.1602 33.335-3.8702 25.156-7.7662 50.312-11.662 75.468-4.1798 27.014-8.3338 54.028-12.514 81.067-2.5801 16.797-5.3924 33.567-7.7919 50.39-2.7607 19.557 8.0757 44.378 30.11 45.281 8.9788 0.36121 17.958 0.59342 26.936 0.56762 7.3534-0.0258 14.758 0.23221 22.06 0.15481 3.3025-0.0258 6.6567-0.77403 9.7012-2.0899 10.295-4.4378 15.764-15.042 18.422-25.388 8.9272-34.419 11.482-71.392 11.482-71.392 7.4565 0.1032 14.913 0.1806 22.37 0.28381 14.887 0.18061 29.413 1.1352 44.068-1.8577 8.9788-1.8319 17.777-4.5152 26.24-8.0242 23.711-9.8302 44.146-26.575 57.098-48.893 10.166-17.519 15.403-37.437 17.209-57.511 10.191-112.8-80.319-113.45-80.319-113.45m-38.624 198.18c-10.94 1.032-21.983 0.69663-33.412 0.69663h-40.146s-14.655 89.865-15.919 95.929c-0.8514 3.9992-3.0961 4.0766-6.7083 4.0766-3.6895 0.0258-7.3791 0.0516-11.069 0.0516h-23.014c-7.6372 0-5.4183-12.101-5.4183-12.101l38.547-247.92c1.6512-10.553 9.8818-9.4432 9.8818-9.4432h106.43s72.862-7.5855 71.392 77.636c-3.6896 40.611-28.923 72.604-67.16 86.124-7.8436 2.7607-15.584 4.2056-23.402 4.9538" stroke-width="2.5801"/>
<g transform="matrix(2.5801 0 0 2.5801 2331.8 -224.24)">
<path class="st1" d="m511.29 224.72c1.66-0.12 3.36-0.74 4.86-1.38 2.53-1.07 4.87-2.62 6.8-4.59 2.61-2.67 4.36-6.05 5.27-9.66 0.58-2.31 0.87-4.69 0.87-7.06 0-4.31-0.56-8.97-3.01-12.64-1.58-2.38-3.94-4.03-6.66-4.86-2.74-0.82-5.57-0.78-8.4-0.79h-3.29-5.34-7.12-8.19-8.54-8.16-7.07-5.26c-2.05 0-3.88-0.04-5.82 0.61-1.82 0.62-3.51 1.6-4.96 2.87-2.12 1.87-3.67 4.3-4.7 6.91-0.75 1.9-1.24 3.89-1.55 5.91l-0.24 1.53c-0.22 1.42-0.44 2.85-0.66 4.27-0.33 2.17-0.67 4.35-1 6.52-0.43 2.76-0.85 5.53-1.28 8.29-0.5 3.19-0.99 6.38-1.48 9.57-0.54 3.45-1.07 6.91-1.6 10.36-0.55 3.55-1.1 7.11-1.65 10.66-0.54 3.49-1.08 6.98-1.62 10.48-0.51 3.27-1.01 6.54-1.51 9.81-0.44 2.88-0.89 5.77-1.33 8.65-0.36 2.34-0.72 4.67-1.08 7-0.25 1.62-0.5 3.25-0.75 4.87-0.29 1.9-0.39 3.62-0.13 5.5 0.2 1.45 0.51 2.89 0.97 4.27 1.08 3.27 3.06 6.36 6.27 7.86 1.37 0.65 2.88 0.96 4.39 1.02 12.1 0.49 9.16 0.28 13.19 0.28 4.86 0 13.63 1.44 16.59-14.61 2.97-16.06 3.95-28.41 3.95-28.41h25.19c1.5 0 2.93 0.08 4.39-0.26 0.76-0.17 1.5-0.39 2.23-0.65 2.1-0.73 4.09-1.79 5.82-3.19 2.25-1.81 3.99-4.17 5.06-6.85 0.65-1.64 1.06-3.36 1.27-5.11 0.44-3.7 0.51-7.57-0.51-11.19-0.7-2.46-1.96-4.79-3.95-6.44-1.7-1.42-3.8-2.24-5.99-2.53-1.76-0.24-3.62-0.14-5.4-0.18-2.55-0.05-5.09-0.1-7.63-0.14-2.65-0.05-5.3-0.1-7.94-0.15-1.75-0.03-3.49-0.07-5.23-0.1-0.22 0-0.44-0.01-0.66-0.01l0.74-6.42h24.5 6.75c0.19 0.01 0.39 0 0.6-0.02m5.71-25.9c0 0.78 0.04 2.53-0.19 6.42-0.5 8.23-10.38 6.92-10.38 6.92h-36.73l-5.44 31.45 40.02 0.5c0.08 3.49-0.01 8.3-2.8 10.9-1.51 1.4-3.35 1.13-5.24 1.13h-34.28s-5.11 32.77-6.26 38.7c-0.29 1.49-0.74 3.23-1.91 4.3-0.68 0.62-1.44 0.59-2.3 0.58-0.76-0.01-1.52 0.01-2.27 0.01h-6.53c-2.3 0-3.78-1.93-3.96-4.09-0.07-0.82 0.09-1.63 0.21-2.43 0.21-1.38 0.41-2.75 0.61-4.12 0.32-2.15 0.64-4.29 0.96-6.43 0.41-2.74 0.82-5.49 1.23-8.24 0.48-3.18 0.95-6.36 1.42-9.53 0.51-3.44 1.03-6.88 1.54-10.32 0.52-3.54 1.05-7.07 1.58-10.6 0.52-3.46 1.03-6.91 1.55-10.37l1.44-9.63c0.42-2.8 0.84-5.6 1.25-8.39 0.33-2.21 0.66-4.42 0.99-6.64 0.22-1.46 0.44-2.92 0.65-4.38 0.08-0.53 0.16-1.07 0.24-1.6 1.22-8.2 5.44-7.84 5.44-7.84h55.83c1.94 0 2.71 0.85 3.01 1.68 0.01-0.03 0.32 0.6 0.32 2.02" fill="#fdb93e"/>
</g>
<g transform="matrix(2.5801 0 0 2.5801 2331.8 -224.24)">
<path class="st1" d="m375.43 209.68h-20.13s-5.58 33.1-5.19 33.1c1.07 0 2.42-0.05 3.4-0.05 2.52-0.01 5.04 0 7.57 0 4.9 0.01 9.8 0.01 14.69 0.04 4.47 0.03 8.43-0.63 11.46-4.28 2.58-3.1 3.57-7.22 3.88-11.15 1.36-17.04-11.85-17.66-15.68-17.66m-0.12 21.61h-11.12c-0.39 0 1.24-10.13 1.24-10.13h8.27c2.84 0 5.81-0.25 5.81 5.06 0 5.32-4.2 5.07-4.2 5.07" fill="#fdb93e"/>
</g>
</g>
<g transform="matrix(2.5801 0 0 2.5801 2331.8 -224.24)">
<path class="st251" d="m536.36 316.89c-1.68 1.1-3.95 1.42-5.89 1.75-2.57 0.44-5.13 0.72-7.74 0.72h-249.88-0.55c-67.19 0.37-75.09-52.86-72.01-99.79 3.09-46.94 28.53-74.97 28.53-74.97h-14.82c-12.26 18.3-24.25 62.13-24.25 62.13l-2.55-11.86-2.06 11.86c-6.68-33.66-19.48-54.67-24.62-62.13h-14.95s30.01 27.05 30.01 95.47c3.95 102.76 86.95 100.72 86.95 100.72h251.73c5.15 0 10.49-1.83 14.92-4.4 3.45-2 6.5-4.66 8.95-7.82 1.69-2.17 3.11-4.57 4.16-7.11 2.47-6.05-3.08-6.42-5.93-4.57" fill="#fdb93e"/>
</g>
<g transform="matrix(2.5801 0 0 2.5801 2331.8 -224.24)">
<path class="st251" d="m136.56 130.96c-0.82-16.96-10.55-44.05-21.41-44.05-0.92 0-1.81 0.19-2.69 0.45-0.75-0.27-1.5-0.45-2.26-0.45-2.06 0-4.03 0.77-5.89 2.16-1.43-0.82-2.81-1.3-4.07-1.3-1.03 0-2.09 0.24-3.16 0.7-1.09-0.44-2.15-0.7-3.14-0.7-2.12 0-4.36 0.88-6.56 2.5-0.51-0.09-1.01-0.16-1.47-0.16-8.9 0-14.98 12.4-14.98 36.69 0 24.28 13 49.65 21.89 49.65 1.81 0 3.58 0 4.97-2 1.01 0.41 2.19 0.38 3.96 0.29 1.25-0.06 2.04-0.58 3.21-1.32 0.73 0.26 1.43 0.45 2.06 0.45 1.56 0 3.06-0.71 4.47-2.02 2.74 2.29 4.13 1.79 6 1.79 0.87 0 1.68-0.17 2.46-0.43 0.95 0.25 1.88 0.43 2.76 0.43 10.87 0.01 15.01-18.75 13.85-42.68m-9.5 5.99c-2.56 0.37-5.16-3.09-5.82-7.71s0.87-8.67 3.43-9.04 5.16 3.09 5.82 7.71-0.87 8.67-3.43 9.04" fill="#fdb93e"/>
</g>
<g transform="matrix(2.5801 0 0 2.5801 2331.8 -224.24)">
<path class="st251" d="m290.5 90.12c-0.46 0-0.96 0.07-1.47 0.16-2.2-1.62-4.44-2.5-6.56-2.5-0.98 0-2.04 0.26-3.13 0.7-1.07-0.46-2.13-0.7-3.16-0.7-1.25 0-2.63 0.48-4.06 1.3-1.86-1.39-3.83-2.16-5.89-2.16-0.76 0-1.51 0.18-2.26 0.45-0.88-0.26-1.77-0.45-2.69-0.45-10.86 0-20.58 27.08-21.41 44.05-1.16 23.93 2.97 42.69 13.83 42.69 0.89 0 1.82-0.17 2.77-0.42 0.78 0.25 1.58 0.42 2.45 0.42 1.87 0 3.26 0.5 6-1.79 1.41 1.31 2.91 2.02 4.47 2.02 0.63 0 1.33-0.18 2.06-0.45 1.17 0.74 1.95 1.26 3.21 1.32 1.76 0.08 2.94 0.12 3.96-0.29 1.39 2 3.16 2 4.97 2 8.9 0 21.89-25.37 21.89-49.65 0-24.3-6.08-36.7-14.98-36.7m-37.03 38.9c-0.44 4.65-2.89 8.22-5.46 7.98-2.57-0.25-4.29-4.22-3.85-8.87 0.45-4.65 2.89-8.22 5.46-7.98 2.57 0.25 4.3 4.22 3.85 8.87" fill="#fdb93e"/>
</g>
<g transform="matrix(2.5801 0 0 2.5801 2331.8 -224.24)">
<path class="st252" d="m85.3 134.83c-4.44-41.13 11.79-46.36 11.79-46.36-1.1-0.44-2.15-0.7-3.14-0.7-2.12 0-4.36 0.88-6.56 2.5 0 0-10.74 12.81-8.39 37.76s8.21 37.13 18.8 46.42c1.02 0.41 2.2 0.38 3.96 0.3 1.25-0.06 2.04-0.58 3.21-1.32 0.01 0-12.25 3.89-19.67-38.6" fill="#fdb93e"/>
</g>
<g transform="matrix(2.5801 0 0 2.5801 2331.8 -224.24)">
<path class="st252" d="m100.33 127.01c-0.82-37.79 12.13-39.64 12.13-39.64-0.75-0.28-1.5-0.45-2.26-0.45-2.06 0-4.03 0.77-5.89 2.16 0 0-12.63 8.79-9.33 40.41 3.29 31.54 11.75 38.7 17.87 43.33 1.9 1.15 3.12 0.84 4.66 0.84 0.87 0 1.68-0.17 2.45-0.42 0-0.01-17.32-5.64-19.63-46.23" fill="#fdb93e"/>
</g>
<g transform="matrix(2.5801 0 0 2.5801 2331.8 -224.24)">
<path class="st252" d="m291.12 134.83c4.44-41.13-11.78-46.36-11.78-46.36 1.09-0.44 2.15-0.7 3.14-0.7 2.12 0 4.36 0.88 6.56 2.5 0 0 10.73 12.81 8.38 37.76-2.34 24.95-8.21 37.13-18.8 46.42-1.01 0.41-2.19 0.38-3.96 0.3-1.25-0.06-2.04-0.58-3.21-1.32 0 0 12.26 3.89 19.67-38.6" fill="#fdb93e"/>
</g>
<g transform="matrix(2.5801 0 0 2.5801 2331.8 -224.24)">
<path class="st252" d="m276.09 127.01c0.82-37.79-12.13-39.64-12.13-39.64 0.75-0.28 1.5-0.45 2.26-0.45 2.06 0 4.03 0.77 5.89 2.16 0 0 12.63 8.79 9.33 40.41-3.29 31.54-11.75 38.7-17.87 43.33-1.9 1.15-3.12 0.84-4.66 0.84-0.87 0-1.68-0.17-2.45-0.42 0-0.01 17.32-5.64 19.63-46.23" fill="#fdb93e"/>
</g>
<g transform="matrix(2.5801 0 0 2.5801 2331.8 -224.24)">
<path class="st251" d="m187.69 116.8s-67.11 1.39-63.49 11.77c1.65 3.87 1.9 3.95 14.41 1.73s33.59-4.11 49.07-4.36 48.1 3.73 56.7 6.48 8.19-7.76 1.1-9.1c-7.07-1.33-23.45-6.36-57.79-6.52" fill="#fdb93e"/>
</g>
<g transform="matrix(2.5801 0 0 2.5801 2331.8 -224.24)">
<path class="st252" d="m259.99 340.72c-0.25-0.01-0.5-0.02-0.78-0.04 0.29 0.02 0.53 0.03 0.78 0.04" fill="#fdb93e"/>
</g>
<g transform="matrix(2.5801 0 0 2.5801 2331.8 -224.24)">
<path class="st252" d="m261.26 340.77c-0.19 0-0.39-0.01-0.63-0.02 0.24 0.01 0.44 0.02 0.63 0.02" fill="#fdb93e"/>
</g>
<g transform="matrix(2.5801 0 0 2.5801 2331.8 -224.24)">
<path class="st252" d="m262.14 340.79h-0.47 0.47" fill="#fdb93e"/>
</g>
<g transform="matrix(2.5801 0 0 2.5801 2331.8 -224.24)">
<path class="st252" d="m258.37 340.62c-0.3-0.02-0.6-0.04-0.93-0.07 0.33 0.03 0.63 0.05 0.93 0.07" fill="#fdb93e"/>
</g>
<g transform="matrix(2.5801 0 0 2.5801 2331.8 -224.24)">
<path class="st252" d="m254.18 340.2c-0.4-0.05-0.8-0.1-1.22-0.16 0.42 0.06 0.82 0.11 1.22 0.16" fill="#fdb93e"/>
</g>
<g transform="matrix(2.5801 0 0 2.5801 2331.8 -224.24)">
<path class="st252" d="m251.65 339.85c-0.44-0.07-0.89-0.14-1.35-0.22 0.46 0.07 0.91 0.15 1.35 0.22" fill="#fdb93e"/>
</g>
<g transform="matrix(2.5801 0 0 2.5801 2331.8 -224.24)">
<path class="st252" d="m214 144.59h-5.06c-6.67 4.07-21.74 50.27-21.74 50.27l2.55 11.86s11.98-43.83 24.25-62.13" fill="#fdb93e"/>
</g>
<g transform="matrix(2.5801 0 0 2.5801 2331.8 -224.24)">
<path class="st252" d="m262.54 340.78h-0.22c0.14 0.01 0.22 0 0.22 0" fill="#fdb93e"/>
</g>
<g transform="matrix(2.5801 0 0 2.5801 2331.8 -224.24)">
<path class="st252" d="m257.86 318.48c2.11 0.27 4.29 0.48 6.55 0.63-2.26-0.15-4.45-0.36-6.55-0.63" fill="#fdb93e"/>
</g>
<g transform="matrix(2.5801 0 0 2.5801 2331.8 -224.24)">
<path class="st252" d="m256.52 318.31c-0.73-0.11-1.48-0.21-2.19-0.33 0.71 0.12 1.45 0.22 2.19 0.33z" fill="#fdb93e"/>
</g>
<g transform="matrix(2.5801 0 0 2.5801 2331.8 -224.24)">
<path class="st252" d="m265.03 319.15c2.35 0.13 4.75 0.22 7.27 0.2-2.52 0.02-4.93-0.06-7.27-0.2" fill="#fdb93e"/>
</g>
<g transform="matrix(2.5801 0 0 2.5801 2331.8 -224.24)">
<path class="st252" d="m248.86 339.37c-0.48-0.09-0.96-0.19-1.46-0.29 0.5 0.1 0.99 0.2 1.46 0.29" fill="#fdb93e"/>
</g>
<g transform="matrix(2.5801 0 0 2.5801 2331.8 -224.24)">
<path class="st252" d="m187.2 194.86c-6.05-29.76-21.12-50.27-21.12-50.27h-5.55c5.13 7.46 17.93 28.46 24.62 62.13z" fill="#fdb93e"/>
</g>
<g transform="matrix(2.5801 0 0 2.5801 2331.8 -224.24)">
<path class="st252" d="m256.44 340.46c-0.35-0.03-0.71-0.07-1.09-0.11 0.37 0.04 0.73 0.07 1.09 0.11" fill="#fdb93e"/>
</g>
<g transform="matrix(2.5801 0 0 2.5801 2331.8 -224.24)">
<path class="st252" d="m232.07 334.53c-0.67-0.27-1.36-0.57-2.04-0.86 0.68 0.29 1.36 0.59 2.04 0.86" fill="#fdb93e"/>
</g>
<g transform="matrix(2.5801 0 0 2.5801 2331.8 -224.24)">
<path class="st252" d="m242.63 337.97c-0.54-0.14-1.1-0.3-1.65-0.45 0.56 0.16 1.11 0.31 1.65 0.45" fill="#fdb93e"/>
</g>
<g transform="matrix(2.5801 0 0 2.5801 2331.8 -224.24)">
<path class="st252" d="m239.25 337.02c-0.57-0.17-1.16-0.37-1.75-0.56 0.59 0.2 1.18 0.39 1.75 0.56" fill="#fdb93e"/>
</g>
<g transform="matrix(2.5801 0 0 2.5801 2331.8 -224.24)">
<path class="st252" d="m235.72 335.88c-0.61-0.21-1.23-0.45-1.85-0.68 0.62 0.23 1.24 0.47 1.85 0.68" fill="#fdb93e"/>
</g>
<g transform="matrix(2.5801 0 0 2.5801 2331.8 -224.24)">
<path class="st252" d="m245.85 338.75c-0.51-0.11-1.04-0.24-1.56-0.37 0.53 0.13 1.05 0.26 1.56 0.37" fill="#fdb93e"/>
</g>
<g transform="matrix(2.5801 0 0 2.5801 2331.8 -224.24)">
<path class="st252" d="m224.59 331.16c1.25 0.64 2.5 1.23 3.74 1.79-1.24-0.56-2.49-1.15-3.74-1.79" fill="#fdb93e"/>
</g>
<g transform="matrix(2.5801 0 0 2.5801 2331.8 -224.24)">
<path class="st252" d="m262.32 340.79h-0.18 0.18" fill="#fdb93e"/>
</g>
<g transform="matrix(2.5801 0 0 2.5801 2331.8 -224.24)">
<path class="st252" d="m194.86 246.4c2.12 62.76 44.22 69.35 59.46 71.58-50.63-8.58-56.82-56.06-54.03-98.42 3.09-46.94 28.53-74.97 28.53-74.97h-8.63c-9.21 15.05-27.05 51.02-25.33 101.81" fill="#fdb93e"/>
</g>
<g transform="matrix(2.5801 0 0 2.5801 2331.8 -224.24)">
<path class="st252" d="m233.87 335.2c-0.6-0.22-1.19-0.44-1.8-0.67 0.61 0.24 1.2 0.45 1.8 0.67" fill="#fdb93e"/>
</g>
<g transform="matrix(2.5801 0 0 2.5801 2331.8 -224.24)">
<path class="st252" d="m179.05 219.07c-2.07-37.55-16.05-62.64-24.61-74.48h-8.86s30.01 27.05 30.01 95.47c2.1 54.65 26.56 79.66 49 91.09-37.43-20.63-42.58-58.4-45.54-112.08" fill="#fdb93e"/>
</g>
<g transform="matrix(2.5801 0 0 2.5801 2331.8 -224.24)">
<path class="st252" d="m257.85 318.48c-0.44-0.06-0.89-0.11-1.33-0.18 0.41 0.06 0.79 0.13 1.13 0.19 0.07 0.02 0.13-0.02 0.2-0.01" fill="#fdb93e"/>
</g>
<g transform="matrix(2.5801 0 0 2.5801 2331.8 -224.24)">
<path class="st252" d="m250.3 339.63c-0.47-0.08-0.95-0.17-1.44-0.26 0.5 0.09 0.97 0.18 1.44 0.26" fill="#fdb93e"/>
</g>
<g transform="matrix(2.5801 0 0 2.5801 2331.8 -224.24)">
<path class="st252" d="m230.03 333.67c-0.57-0.24-1.13-0.46-1.7-0.72 0.57 0.26 1.13 0.48 1.7 0.72" fill="#fdb93e"/>
</g>
<g transform="matrix(2.5801 0 0 2.5801 2331.8 -224.24)">
<path class="st252" d="m264.4 319.11c0.21 0.01 0.42 0.03 0.63 0.05-0.22-0.02-0.42-0.04-0.63-0.05" fill="#fdb93e"/>
</g>
<g transform="matrix(2.5801 0 0 2.5801 2331.8 -224.24)">
<path class="st252" d="m255.34 340.35c-0.37-0.04-0.77-0.09-1.16-0.14 0.4 0.04 0.79 0.09 1.16 0.14" fill="#fdb93e"/>
</g>
<g transform="matrix(2.5801 0 0 2.5801 2331.8 -224.24)">
<path class="st252" d="m244.29 338.38c-0.55-0.13-1.09-0.26-1.65-0.41 0.56 0.15 1.1 0.28 1.65 0.41" fill="#fdb93e"/>
</g>
<g transform="matrix(2.5801 0 0 2.5801 2331.8 -224.24)">
<path class="st252" d="m247.4 339.08c-0.51-0.11-1.03-0.21-1.55-0.33 0.53 0.12 1.04 0.22 1.55 0.33" fill="#fdb93e"/>
</g>
<g transform="matrix(2.5801 0 0 2.5801 2331.8 -224.24)">
<path class="st252" d="m252.96 340.04c-0.43-0.06-0.87-0.12-1.31-0.19 0.45 0.07 0.88 0.13 1.31 0.19" fill="#fdb93e"/>
</g>
<g transform="matrix(2.5801 0 0 2.5801 2331.8 -224.24)">
<path class="st252" d="m257.44 340.55c-0.32-0.03-0.66-0.06-1-0.1 0.34 0.04 0.68 0.08 1 0.1" fill="#fdb93e"/>
</g>
<g transform="matrix(2.5801 0 0 2.5801 2331.8 -224.24)">
<path class="st252" d="m240.98 337.52c-0.58-0.16-1.14-0.32-1.73-0.5 0.59 0.18 1.16 0.34 1.73 0.5" fill="#fdb93e"/>
</g>
<g transform="matrix(2.5801 0 0 2.5801 2331.8 -224.24)">
<path class="st252" d="m260.63 340.75c-0.19-0.01-0.42-0.02-0.64-0.03 0.22 0.02 0.45 0.03 0.64 0.03" fill="#fdb93e"/>
</g>
<g transform="matrix(2.5801 0 0 2.5801 2331.8 -224.24)">
<path class="st252" d="m261.67 340.78c-0.11 0-0.28-0.01-0.41-0.01 0.14 0.01 0.3 0.01 0.41 0.01" fill="#fdb93e"/>
</g>
<g transform="matrix(2.5801 0 0 2.5801 2331.8 -224.24)">
<path class="st252" d="m237.5 336.47c-0.59-0.19-1.18-0.38-1.78-0.59 0.6 0.21 1.19 0.4 1.78 0.59" fill="#fdb93e"/>
</g>
<g transform="matrix(2.5801 0 0 2.5801 2331.8 -224.24)">
<path class="st252" d="m259.21 340.68c-0.26-0.01-0.55-0.04-0.84-0.06 0.29 0.03 0.58 0.05 0.84 0.06" fill="#fdb93e"/>
</g>
<path d="m3608.2 133.86-396.96 0.00195-25.463 39.518h422.43c79.311 2.1457 145.49 23.407 185.56 82.67 15.15 29.039 20.422 56.735 17.537 82.377l-7.2383 54.043c-2.5857 12.706-1.7244 16.979 2.2969 23.236 12.126-3.1457 21.932-23.834 31.584-44.625 6.3349-20.794 11.46-43.385 12.803-69.514-1.7749-72.484-37.657-101.13-56.643-117.57-58.181-39.881-128.64-48.194-185.9-50.137z" stroke-width="32.148"/>
</g>
</g>
</svg>
